<svg xmlns="http://www.w3.org/2000/svg" viewBox="0 0 26 23" width="26" height="23">
	<style>
		tspan { white-space:pre }
		.shp0 { fill: #ffffff } 
	</style>
	<path id="Chat" class="shp0" d="M25 20C25 20 22.3 20.01 19.99 20.01C20 20.97 19.99 22.49 19.97 22.62C19.93 22.88 19.29 23.13 19.01 22.92C18.32 22.34 18 21.72 16.94 20C16.77 20 16.16 20 16 20C13.38 20 12 20 12 20C11.17 20 11.02 19.68 11.02 18.85L11.02 17.98C11.26 17.99 12.05 18.01 12.05 18.01L12.01 18.99L17.94 19L19 21L19 19.01L25 19.01L25 10.02L18.98 10.02L18.98 9.04L24.5 9.04C25.33 9.04 26 9.37 26 10.2L26 18.85C26 19.68 25.83 20 25 20ZM11.02 17.98C10.61 17.98 10.23 17.98 9.89 17.98C9.73 17.98 9.57 17.98 9.41 17.98C8.71 18.59 7.43 19.71 6.74 20.29C6.46 20.51 5.85 20.26 5.81 20C5.79 19.86 5.79 18.94 5.8 17.98C3.48 17.98 1.12 17.98 1.12 17.98C0.3 17.98 0 17.68 0 16.85L0 2.1C0 1.27 0.14 1 0.97 1L17.95 1C18.78 1 18.98 1.24 18.98 2.07L18.98 16.22C18.98 17.05 18.22 17.98 17.39 17.98C17.39 17.98 13.7 17.98 11.02 17.98L11.02 17.98C10.93 17.98 10.91 17.98 11.02 17.98ZM17.96 16.98L17.99 2.03L1 2.04L1 16.98L6.95 16.98L6.96 18.94L8.98 16.98L17.96 16.98ZM4.66 12.58L4.66 12.54C4.66 12.26 4.89 11.99 5.17 11.99L14.23 11.99C14.52 11.99 14.74 12.27 14.74 12.56L14.74 12.58C14.74 12.87 14.52 13.03 14.23 13.03L5.17 13.03C4.89 13.03 4.66 12.87 4.66 12.58ZM11.99 7.03L5.17 7.03C4.89 7.03 4.66 6.87 4.66 6.59L4.66 6.55C4.66 6.26 4.89 6 5.17 6L11.99 6C12.27 6 12.5 6.28 12.5 6.56L12.5 6.59C12.5 6.87 12.27 7.03 11.99 7.03ZM5.17 9.01L9.74 9.01C10.02 9.01 10.25 9.26 10.25 9.55L10.25 9.57C10.25 9.85 10.02 10.01 9.74 10.01L5.17 10.01C4.89 10.01 4.66 9.85 4.66 9.57L4.66 9.53C4.66 9.24 4.89 9.01 5.17 9.01Z" />
</svg>