<svg xmlns="http://www.w3.org/2000/svg" viewBox="0 0 25 25" width="25" height="25">
	<style>
		tspan { white-space:pre }
		.shp0 { fill: #ffffff } 
	</style>
	<path id="Notifications" class="shp0" d="M23.92 20.68C23.78 20.92 23.57 21.05 23.28 21.05L0.74 21.05C0.45 21.05 0.24 20.92 0.1 20.68C0.03 20.56 0 20.3 0 20.18C0 20.04 0.06 19.91 0.15 19.78C1.08 18.41 1.78 16.95 2.26 15.41C2.74 13.87 3.62 11.91 4 9C4.22 7.31 4.47 5.61 5.24 4.7C5.63 4.23 6.08 3.82 6.58 3.46C7.58 2.73 8.4 2.4 9.34 2.12C9.47 1.52 9.78 1.01 10.28 0.61C10.78 0.21 11.36 0 12 0C12.65 0 13.22 0.21 13.73 0.61C14.23 1.02 14.55 1.52 14.68 2.12C15.62 2.4 16.43 2.74 17.43 3.46C17.94 3.82 18.38 4.24 18.77 4.7C19.54 5.62 20.25 7.05 20.47 8.74C20.85 11.65 21.27 13.88 21.75 15.41C22.23 16.95 22.93 18.58 23.87 19.94C23.96 20.06 24 20.19 24 20.33C24 20.44 23.98 20.56 23.92 20.68ZM20.17 15.09C19.75 13.53 19.37 11.47 19.01 8.92C18.82 7.49 18.25 6.29 17.57 5.51C17.24 5.13 16.85 4.79 16.41 4.49C15.53 3.89 14.74 3.61 13.84 3.39C13.51 3.31 13.28 3.03 13.28 2.71L13.28 2.68C13.28 1.99 12.72 1.44 12 1.44C11.3 1.44 10.71 1.99 10.71 2.68L10.71 2.71C10.71 3.03 10.5 3.32 10.18 3.39C9.27 3.59 8.5 3.9 7.6 4.49C6.33 5.32 5.31 6.71 4.99 8.92C4.63 11.47 4.25 13.54 3.84 15.1C3.43 16.67 2.79 18.67 2 20L22 20C21.21 18.66 20.59 16.65 20.17 15.09ZM13.51 23.37C13.1 23.79 12.6 24.01 12.01 24.01C11.42 24.01 10.92 23.8 10.49 23.37C10.07 22.96 9.87 22.47 9.87 21.89L14.13 21.89C14.13 22.47 13.92 22.96 13.51 23.37Z" />
</svg>