<svg xmlns="http://www.w3.org/2000/svg" viewBox="0 0 26 24" width="26" height="24">
	<style>
		tspan { white-space:pre }
		.shp0 { fill: #c7cdd9 } 
	</style>
	<path id="Ask" fill-rule="evenodd" class="shp0" d="M3.4 0.18L22.6 0.18C25.25 0.18 25 -0.06 25 2.55L25 21.45C25 24.06 25.25 23.82 22.6 23.82L3.4 23.82C0.75 23.82 1 24.06 1 21.45L1 2.55C1 -0.06 0.75 0.18 3.4 0.18ZM2.01 0.99L23.99 0.99L23.99 22.98L2.01 22.98L2.01 0.99ZM13.85 16.96L13.85 18.96L12.09 18.96L12.09 16.96L13.85 16.96ZM9.56 8.44C9.74 7.95 9.99 7.4 10.33 7.03C10.66 6.67 10.97 6.36 11.46 6.16C11.94 5.95 12.45 5.85 13.05 5.85C13.59 5.85 14.08 5.89 14.53 6.04C14.97 6.2 15.43 6.55 15.75 6.84C16.07 7.12 16.34 7.52 16.52 7.93C16.7 8.35 16.76 8.83 16.76 9.38C16.76 9.73 16.61 10.04 16.52 10.32C16.44 10.6 16.49 10.85 16.35 11.08C16.22 11.3 16.16 11.51 15.98 11.71C15.8 11.9 15.55 12.09 15.36 12.27C15.18 12.44 14.92 12.61 14.74 12.78C14.56 12.96 14.57 13.15 14.42 13.35C14.28 13.54 14.16 13.76 14.08 13.99C13.99 14.22 13.95 14.57 13.95 14.86L13.95 15.53L12.2 15.53L12.2 14.64C12.23 14.17 12.34 13.75 12.49 13.41C12.65 13.08 12.82 12.8 13.05 12.54C13.26 12.29 14.18 11.39 14.41 11.14C14.92 10.55 15.24 10.18 15.19 9.24C15.15 8.62 15.07 8.13 14.71 7.78C14.35 7.43 13.67 7.26 13.05 7.26C12.63 7.26 12.43 7.31 12.13 7.46C11.83 7.61 11.64 7.82 11.44 8.07C11.24 8.32 11.09 8.61 11 8.95C10.91 9.29 10.86 9.57 10.86 9.97L9.35 9.97C9.34 9.39 9.39 8.94 9.56 8.44Z" />
</svg>