<svg xmlns="http://www.w3.org/2000/svg" viewBox="0 0 22 25" width="22" height="25">
	<style>
		tspan { white-space:pre }
		.shp0 { fill: #c7cdd9 } 
	</style>
	<path id="Companies" class="shp0" d="M9.5 24L1.5 24C0.67 24 0 23.33 0 22.5L0 1.5C0 0.67 0.67 0 1.5 0L9.5 0C10.33 0 11 0.67 11 1.5L11 22.5C11 23.33 10.33 24 9.5 24ZM1.5 1C1.22 1 1 1.22 1 1.5L1 22.5C1 22.78 1.22 23 1.5 23L9.5 23C9.78 23 10 22.78 10 22.5L10 1.5C10 1.22 9.78 1 9.5 1L1.5 1ZM7 7L4 7L4 4L7 4L7 7ZM7 13.5L4 13.5L4 10.5L7 10.5L7 13.5ZM7 20L4 20L4 17L7 17L7 20ZM19.5 24L11.5 24C10.67 24 10 23.33 10 22.5L10 7.5C10 6.67 10.67 6 11.5 6L19.5 6C20.33 6 21 6.67 21 7.5L21 22.5C21 23.33 20.33 24 19.5 24ZM11.5 7C11.22 7 11 7.22 11 7.5L11 22.5C11 22.78 11.22 23 11.5 23L19.5 23C19.78 23 20 22.78 20 22.5L20 7.5C20 7.22 19.78 7 19.5 7L11.5 7ZM17 13.5L14 13.5L14 10.5L17 10.5L17 13.5ZM17 20L14 20L14 17L17 17L17 20ZM9.62 23.42L11.5 23.42L11.5 24L9.62 24L9.62 23.42ZM10.62 6.59L12 6.59L12 6L10.62 6L10.62 6.59Z" />
</svg>