<svg xmlns="http://www.w3.org/2000/svg" viewBox="0 0 24 25" width="24" height="25">
	<style>
		tspan { white-space:pre }
		.shp0 { fill: #c7cdd9 } 
	</style>
	<path id="Feed" class="shp0" d="M19.57,13.7c-0.39,0 -0.58,0.31 -0.58,0.71v8.57h-3.98v-4.35c0,-0.37 -0.3,-0.69 -0.67,-0.69h-4.66c-0.39,0 -0.71,0.32 -0.71,0.69v4.35h-3.99v-8.66c0,-0.37 0,-0.62 -0.39,-0.62c-0.37,0 -0.6,0.24 -0.6,0.62v8.99c0,0.37 0.3,0.68 0.67,0.68h4.7c0.37,0 0.67,-0.31 0.67,-0.68v-4.2h3.99v4.2c0,0.37 0.3,0.68 0.69,0.68h4.63c0.37,0 0.67,-0.31 0.67,-0.68v-8.91c0,-0.4 -0.07,-0.71 -0.43,-0.71zM23.88,12.85l-5.87,-5.85v-4.2c0,-0.4 -0.11,-0.57 -0.5,-0.57c-0.37,0 -0.53,0.2 -0.53,0.59v2.98l-4.48,-4.58c-0.14,-0.14 -0.3,-0.22 -0.47,-0.22c-0.19,0 -0.35,0.08 -0.49,0.22l-11.35,11.55c-0.27,0.28 0.16,0.55 0.45,0.8c0.25,0.3 0.81,-0.28 1.09,-0.56l10.27,-10.97l10.68,11.32c0.11,0.12 0.33,0.28 0.54,0.28c0.19,0 0.2,0.07 0.34,-0.05c0.25,-0.26 0.58,-0.48 0.31,-0.76z" />
</svg>