<svg xmlns="http://www.w3.org/2000/svg" viewBox="0 0 20 25" width="20" height="25">
	<style>
		tspan { white-space:pre }
		.shp0 { fill: #c7cdd9 } 
	</style>
	<path id="Services" class="shp0" d="M17.5 24L1.5 24C0.67 24 0 23.33 0 22.5L0 1.5C0 0.67 0.67 0 1.5 0L17.5 0C18.33 0 19 0.67 19 1.5L19 22.5C19 23.33 18.33 24 17.5 24ZM1.5 1C1.22 1 1 1.22 1 1.5L1 22.5C1 22.78 1.22 23 1.5 23L17.5 23C17.78 23 18 22.78 18 22.5L18 1.5C18 1.22 17.78 1 17.5 1L1.5 1ZM16 9L3 9L3 7L16 7L16 9ZM16 5L7 5L7 3L16 3L16 5ZM16 21L3 21L3 19L16 19L16 21ZM16 17L3 17L3 15L16 15L16 17ZM16 13L3 13L3 11L16 11L16 13Z" />
</svg>